# xmcd
#
# Track frame offsets:
#   150
#   16506
#   31332
#   47404
#   65421
#   78411
#   90180
#   105597
#   120805
#   135480
#   151067
#   162858
#   176606
#   191432
#   206977
#   220406
#   234971
#   252577
#   276478
#   289632
#   302704
#
# Disc length: 4237 seconds
#
# Revision: 0
# Processed by: cddbd v1.5.2PL0 Copyright (c) Steve Scherf et al.
# Submitted via: uFREEDB ActiveX Control 1.5
#
DISCID=0e108b15
DTITLE=Sertanejo - Acustico e ao vivo 2009
DYEAR=2009
DGENRE=Country
TTITLE0=Não tente me impedir - Bruno e Marrone
TTITLE1=Mistérios - Jorge e Mateus
TTITLE2=Borboletas - Víctor e Leo
TTITLE3=Voce de Volta - Maria Cecilia e Rodolfo
TTITLE4=Curtição - João bosco e Vinícius
TTITLE5=Ciumenta - Cesar Menotti e Fabiano
TTITLE6=Vendaval - Fernando e Sorocaba
TTITLE7=Nada Normal - Victor e Leo
TTITLE8=Amor não vai faltar - Bruno e Marrone
TTITLE9=Ele te Trai - Rodrigo e Rodrigo
TTITLE10=Misteriosa - Hugo e Tiago
TTITLE11=Chora me Liga - João Bosco e Vinícius
TTITLE12=Espelhos - Jorge e Mateus
TTITLE13=Paga Pau - Fernando e Sorocaba
TTITLE14=Meu Anjo - João Neto e Frederico
TTITLE15=Voce Sabia - Víctor e Leo
TTITLE16=Tarde Demais - Cesar Menotti e Fabiano
TTITLE17=Favo de mel - Bruno e Marrone
TTITLE18=Seu eu Pedir, ce Volta - Jorge e Mateus
TTITLE19=Mala Pronta - Hugo Pena e Gabriel
TTITLE20=Sacanagem Tua - Janaynna
EXTD=
EXTT0=
EXTT1=
EXTT2=
EXTT3=
EXTT4=
EXTT5=
EXTT6=
EXTT7=
EXTT8=
EXTT9=
EXTT10=
EXTT11=
EXTT12=
EXTT13=
EXTT14=
EXTT15=
EXTT16=
EXTT17=
EXTT18=
EXTT19=
EXTT20=
PLAYORDER=
